<?xml version="1.0" encoding="utf-8"?>
<!-- Generator: Adobe Illustrator 24.3.0, SVG Export Plug-In . SVG Version: 6.00 Build 0)  -->
<svg version="1.1" id="Capa_1" xmlns="http://www.w3.org/2000/svg" xmlns:xlink="http://www.w3.org/1999/xlink" x="0px" y="0px"
	 viewBox="0 0 100 100" style="enable-background:new 0 0 100 100;" xml:space="preserve">
<g>
	<path d="M95.1,25.8L56,14.3c-2.9-0.9-6.1-0.9-9.1,0L4.3,26.9c-4,1.2-4.1,5.7-0.1,7l3.2,1v41.8h5.1V36.6l37.3,11.9
		c1.2,0.4,2.5,0.4,3.7-0.1l42.1-15.7C99.3,31.3,99,26.9,95.1,25.8z"/>
	<path d="M47.3,55.7L20.1,48v18.9c0,7.1,9.1,12.9,20.3,12.9H59c11.1,0,20.3-5.8,20.3-12.9V47.6l-23.9,7.9
		C52.8,56.3,49.9,56.4,47.3,55.7z"/>
</g>
</svg>
