<?xml version="1.0" encoding="utf-8"?>
<!-- Generator: Adobe Illustrator 24.3.0, SVG Export Plug-In . SVG Version: 6.00 Build 0)  -->
<svg version="1.1" id="Capa_1" xmlns="http://www.w3.org/2000/svg" xmlns:xlink="http://www.w3.org/1999/xlink" x="0px" y="0px"
	 viewBox="0 0 100 100" style="enable-background:new 0 0 100 100;" xml:space="preserve">
<g>
	<path d="M98.5,50c0,27.1-21.7,49-48.5,49S1.5,77.1,1.5,50S23.2,1,50,1S98.5,22.9,98.5,50z M50,7.5C26.8,7.5,7.9,26.5,7.9,50
		S26.8,92.5,50,92.5s42.1-19,42.1-42.5S73.2,7.5,50,7.5z"/>
	<circle cx="67" cy="38" r="5"/>
	<circle cx="34" cy="38" r="5"/>
	<path d="M79,53l-6-1c0,0-3.3,16.1-20.6,16.6S31.4,52,31.4,52L25,53c0,0,3,21.4,27,21.2C75,74,79,53,79,53z"/>
</g>
</svg>
