<?xml version="1.0" encoding="utf-8"?>
<!-- Generator: Adobe Illustrator 24.3.0, SVG Export Plug-In . SVG Version: 6.00 Build 0)  -->
<svg version="1.1" id="Capa_1" xmlns="http://www.w3.org/2000/svg" xmlns:xlink="http://www.w3.org/1999/xlink" x="0px" y="0px"
	 viewBox="0 0 100 100" style="enable-background:new 0 0 100 100;" xml:space="preserve">
<g>
	<path d="M89.5,95H5V10c0,0,0-5,6-5c5,0,5,5,5,5v74h73.5c3,0,5.5,2.5,5.5,5.5v0C95,92.5,92.5,95,89.5,95z"/>
	<path d="M26,65l14-15l11.7,7.5c0,0,3.1,1.5,5.7,0S82,37,82,37s4-3.3,0-7.1s-7.4,0-7.4,0L53.9,47.1L42,39c0,0-2-2-5,0S19,58,19,58
		s-2,3,1,6S26,65,26,65z"/>
</g>
</svg>
