<?xml version="1.0" encoding="utf-8"?>
<!-- Generator: Adobe Illustrator 24.3.0, SVG Export Plug-In . SVG Version: 6.00 Build 0)  -->
<svg version="1.1" id="Capa_1" xmlns="http://www.w3.org/2000/svg" xmlns:xlink="http://www.w3.org/1999/xlink" x="0px" y="0px"
	 viewBox="0 0 100 100" style="enable-background:new 0 0 100 100;" xml:space="preserve">
<style type="text/css">
	.st0{fill-rule:evenodd;clip-rule:evenodd;}
</style>
<path class="st0" d="M87.2,76.3c0,6.8-5.2,12.3-11.6,12.3H53.1H38.4c-6.4,0-11.6-5.5-11.6-12.3V23.8c0-6.8,5.2-12.3,11.6-12.3h14.7
	h22.5c6.4,0,11.6,5.5,11.6,12.3V76.3z M12.2,76.3V23.8c0-6.8,5.2-12.3,11.6-12.3h1.1c-2.7,3.3-4.3,7.6-4.3,12.3v52.4
	c0,4.7,1.6,9,4.3,12.3h-1.1C17.4,88.5,12.2,83,12.2,76.3z M75.7,4.9H53.1H38.4H23.7c-9.9,0-17.9,8.5-17.9,19v52.4
	c0,10.5,8,19,17.9,19h14.7h14.7h22.5c9.9,0,17.9-8.5,17.9-19V23.8C93.5,13.4,85.5,4.9,75.7,4.9z"/>
</svg>
