<?xml version="1.0" encoding="utf-8"?>
<!-- Generator: Adobe Illustrator 24.3.0, SVG Export Plug-In . SVG Version: 6.00 Build 0)  -->
<svg version="1.1" id="Capa_1" xmlns="http://www.w3.org/2000/svg" xmlns:xlink="http://www.w3.org/1999/xlink" x="0px" y="0px"
	 viewBox="0 0 100 100" style="enable-background:new 0 0 100 100;" xml:space="preserve">
<style type="text/css">
	.st0{fill-rule:evenodd;clip-rule:evenodd;}
</style>
<path class="st0" d="M69.9,62.2h-4.3l-1.5-1.5c5.2-6.1,8.4-14,8.4-22.7C72.6,18.7,56.9,3,37.6,3S2.7,18.7,2.7,38
	s15.6,34.9,34.9,34.9c8.7,0,16.6-3.2,22.7-8.4l1.5,1.5v4.3L88.7,97l8-8L69.9,62.2z M37.6,62.2c-13.4,0-24.2-10.8-24.2-24.2
	c0-13.4,10.8-24.2,24.2-24.2C51,13.8,61.8,24.6,61.8,38C61.8,51.3,51,62.2,37.6,62.2z"/>
</svg>
