<?xml version="1.0" encoding="utf-8"?>
<!-- Generator: Adobe Illustrator 24.3.0, SVG Export Plug-In . SVG Version: 6.00 Build 0)  -->
<svg version="1.1" id="Capa_1" xmlns="http://www.w3.org/2000/svg" xmlns:xlink="http://www.w3.org/1999/xlink" x="0px" y="0px"
	 viewBox="0 0 100 100" style="enable-background:new 0 0 100 100;" xml:space="preserve">
<style type="text/css">
	.st0{fill-rule:evenodd;clip-rule:evenodd;}
</style>
<g>
	<path class="st0" d="M49.1,48.3c12.2,0,22.1-10,22.1-22.3S61.3,3.8,49.1,3.8c-12.2,0-22.1,10-22.1,22.3S36.9,48.3,49.1,48.3z"/>
	<path class="st0" d="M65,52l-1.8-0.7L62,52.9c-3.3,4.5-8.2,7.1-13.5,7.1c-4.8,0-9.4-2.2-12.6-6l-1.2-1.5l-1.7,0.7
		C17.2,59.7,7,76.4,8.7,84C11,94.6,36.4,96.1,44.1,96.3c0.5,0,1.5,0,2.9,0c9.9,0,39.4-1.1,42.8-13.9C92.4,72.8,77.5,56.6,65,52z"/>
</g>
</svg>
